# xmcd CD database file
#
# Track frame offsets:
#	150
#	18233
#	32658
#	51680
#	68350
#	87063
#	107755
#	127528
#	152873
#	174643
#	196798
#	216148
#	233233
#
# Disc length: 3350 seconds
#
# Revision: 4
# Processed by: cddbd v1.4PL0 Copyright (c) Steve Scherf et al.
# Submitted via: jetAudio 5
#
DISCID=a00d140d
DTITLE=Donell Jones - Where I Wanna Be
DYEAR=1900
DGENRE=
TTITLE0=U Know What's Up
TTITLE1=Shorty
TTITLE2=Where I Wanna Be
TTITLE3=Have You Seen Her
TTITLE4=This Luv
TTITLE5=All Her Love
TTITLE6=I'ts Alright
TTITLE7=Think About It
TTITLE8=He Won't Hurt You
TTITLE9=Pushin'
TTITLE10=I Wanna Luv You
TTITLE11=When I Was Down
TTITLE12=U Know What's Up (Remix)
EXTD=
EXTT0=
EXTT1=
EXTT2=
EXTT3=
EXTT4=
EXTT5=
EXTT6=
EXTT7=
EXTT8=
EXTT9=
EXTT10=
EXTT11=
EXTT12=
PLAYORDER=
